<?xml version="1.0" standalone="no"?>
<!DOCTYPE svg PUBLIC "-//W3C//DTD SVG 20010904//EN"
 "http://www.w3.org/TR/2001/REC-SVG-20010904/DTD/svg10.dtd">
<svg version="1.0" xmlns="http://www.w3.org/2000/svg"
 width="2400.000000pt" height="2400.000000pt" viewBox="0 0 2400.000000 2400.000000"
 preserveAspectRatio="xMidYMid meet">
<metadata>
Created by potrace 1.14, written by Peter Selinger 2001-2017
</metadata>
<g transform="translate(0.000000,2400.000000) scale(0.100000,-0.100000)"
fill="#000000" stroke="none">
<path d="M2648 15835 c-1 -2 -42 -6 -90 -10 -49 -3 -98 -8 -110 -11 -13 -2
-45 -6 -73 -10 -27 -3 -68 -9 -90 -14 -22 -5 -56 -12 -75 -15 -71 -12 -87 -15
-160 -35 -41 -11 -79 -22 -85 -23 -5 -2 -30 -9 -55 -16 -107 -30 -308 -110
-430 -170 -96 -48 -325 -183 -340 -201 -3 -4 -25 -20 -50 -37 -25 -17 -55 -41
-67 -52 -12 -12 -24 -21 -27 -21 -20 0 -376 -356 -376 -377 0 -2 -11 -16 -26
-31 -86 -91 -305 -469 -363 -626 -12 -33 -25 -64 -29 -70 -3 -6 -7 -15 -8 -21
-1 -5 -11 -35 -22 -65 -28 -74 -77 -255 -101 -370 -31 -148 -38 -195 -58 -380
-9 -91 -10 -555 -1 -625 4 -27 10 -81 14 -120 3 -38 8 -74 11 -78 2 -4 7 -24
9 -45 2 -20 14 -82 25 -137 12 -55 23 -107 24 -117 2 -9 9 -27 16 -40 7 -13
11 -24 10 -26 -5 -5 12 -67 21 -79 6 -7 8 -13 4 -13 -5 0 8 -40 34 -105 4 -11
13 -36 20 -55 21 -59 102 -242 120 -270 6 -8 16 -26 22 -40 7 -14 15 -27 18
-30 3 -3 12 -18 20 -35 17 -34 25 -48 101 -160 29 -44 59 -86 66 -93 7 -7 13
-16 13 -20 0 -4 15 -23 33 -43 17 -20 48 -55 67 -79 57 -71 259 -269 325 -318
6 -4 37 -28 70 -53 115 -87 425 -279 425 -263 0 2 19 -6 43 -19 49 -27 272
-115 367 -145 99 -31 266 -72 355 -88 22 -4 47 -8 55 -10 308 -55 732 -62
1135 -19 143 16 202 23 300 40 17 3 46 8 65 11 19 3 43 7 52 10 10 3 29 7 43
10 64 11 85 16 235 54 69 17 148 38 175 47 59 18 68 20 75 21 3 0 30 10 60 22
30 12 60 23 65 24 18 4 90 28 100 35 6 3 15 6 20 7 6 1 60 23 120 49 168 73
174 75 181 74 4 0 10 3 13 8 3 4 46 28 96 53 l89 45 1 1375 c0 756 -2 1382 -6
1390 -6 13 -131 15 -1038 15 -807 0 -1033 -3 -1043 -13 -6 -6 -8 -12 -3 -12 6
0 10 -13 10 -30 0 -16 -4 -30 -8 -30 -5 0 -5 -5 -2 -11 11 -16 12 -69 3 -75
-5 -3 -5 -10 -1 -17 10 -16 10 -58 1 -63 -5 -3 -5 -10 -1 -17 10 -16 10 -57 0
-57 -4 0 -5 -5 -1 -12 10 -15 10 -60 1 -75 -4 -7 -4 -14 1 -17 9 -6 8 -59 -3
-75 -3 -6 -2 -11 2 -11 10 0 10 -41 0 -57 -4 -5 -4 -13 0 -17 10 -9 10 -56 0
-56 -4 0 -5 -5 -1 -12 10 -16 11 -69 1 -75 -4 -2 -4 -9 0 -16 10 -16 10 -57 0
-57 -4 0 -4 -7 1 -16 5 -9 7 -25 5 -35 -5 -17 1 -19 48 -19 30 -1 281 -2 559
-3 l505 -2 0 -640 0 -639 -65 -34 c-36 -19 -69 -35 -75 -36 -5 -1 -30 -12 -55
-23 -40 -18 -80 -34 -102 -39 -5 -1 -10 -3 -13 -4 -3 -1 -8 -3 -12 -4 -5 -1
-21 -7 -38 -13 -62 -25 -271 -75 -365 -87 -19 -3 -46 -7 -60 -10 -108 -20
-264 -30 -465 -30 -148 0 -290 7 -290 14 0 0 -18 3 -40 6 -22 2 -47 6 -55 8
-25 5 -84 17 -100 20 -8 1 -35 8 -60 15 -25 8 -49 14 -55 16 -35 8 -212 78
-270 107 -78 39 -179 100 -183 110 -2 4 -8 8 -13 8 -9 0 -65 36 -79 50 -3 3
-32 27 -65 55 -93 77 -185 175 -265 280 -56 74 -125 179 -121 184 1 2 -2 7 -7
10 -15 9 -135 262 -148 311 -2 8 -17 54 -33 102 -16 47 -32 99 -35 115 -2 15
-8 39 -11 53 -3 14 -8 36 -11 50 -2 14 -7 36 -9 50 -17 84 -18 92 -31 255 -10
113 -9 306 0 400 5 44 10 94 11 110 2 17 4 30 5 30 1 0 3 14 5 30 2 17 12 64
21 105 22 92 21 89 24 93 1 2 4 11 14 52 8 37 37 120 57 162 10 24 19 48 19
54 0 6 9 23 20 39 11 15 17 30 13 33 -3 4 -1 13 6 20 6 8 23 36 37 63 25 49
120 199 139 221 5 6 21 26 35 44 102 136 270 289 428 392 160 105 409 209 573
241 13 2 31 7 39 10 8 2 35 7 60 10 25 4 59 8 75 11 142 25 445 22 595 -5 30
-5 69 -12 85 -14 58 -9 93 -17 181 -41 49 -14 97 -27 107 -30 20 -5 120 -40
152 -54 63 -27 244 -117 265 -131 14 -10 52 -35 85 -56 33 -21 65 -43 72 -49
6 -5 25 -21 42 -33 17 -13 47 -39 68 -58 20 -19 40 -34 43 -34 4 0 61 55 128
123 456 460 582 589 582 595 0 4 -15 18 -32 32 -18 14 -40 33 -50 43 -10 9
-22 17 -28 17 -5 0 -10 3 -10 8 0 4 -17 18 -38 32 -20 14 -39 27 -42 30 -3 3
-23 17 -45 31 -268 177 -545 294 -885 377 -69 17 -138 33 -155 36 -49 8 -89
15 -114 21 -13 2 -49 7 -80 11 -31 3 -64 8 -74 10 -10 2 -48 6 -85 10 -37 3
-85 8 -107 11 -47 5 -612 13 -617 8z"/>
<path d="M16385 15749 c-90 -14 -109 -20 -190 -59 -55 -26 -100 -58 -142 -99
-58 -57 -130 -163 -136 -199 -1 -10 -5 -21 -9 -27 -3 -5 -11 -35 -16 -66 -32
-172 31 -366 156 -481 98 -88 126 -105 247 -143 50 -16 97 -22 161 -23 240 -2
440 105 542 288 30 54 66 160 55 160 -3 0 -1 6 4 13 21 29 -8 285 -36 307 -3
3 -16 26 -29 51 -65 129 -235 244 -410 275 -46 9 -148 10 -197 3z"/>
<path d="M18004 14962 c1 -32 -2 -67 -6 -79 -4 -13 -4 -23 0 -23 9 0 8 -213
-2 -228 -4 -7 -4 -12 1 -12 10 0 8 -213 -1 -229 -4 -6 -4 -11 1 -11 10 0 9
-212 -1 -228 -4 -7 -4 -12 1 -12 6 0 9 -127 4 -182 -1 -5 -171 -8 -379 -8
l-379 0 0 -385 c0 -253 3 -388 10 -392 6 -3 176 -6 379 -6 328 0 368 -2 369
-16 5 -59 3 -98 -4 -113 -4 -10 -4 -18 0 -18 10 0 8 -213 -1 -229 -4 -6 -4
-11 1 -11 10 0 9 -212 -1 -228 -4 -7 -4 -12 1 -12 10 0 8 -213 -1 -229 -4 -6
-4 -11 1 -11 10 0 9 -212 -1 -228 -4 -7 -4 -12 1 -12 10 0 8 -213 -1 -229 -4
-6 -4 -11 1 -11 10 0 9 -212 -1 -228 -4 -7 -4 -12 1 -12 4 0 8 -71 9 -158 1
-194 8 -302 28 -412 21 -114 22 -120 36 -155 6 -16 11 -31 11 -33 -4 -9 17
-68 46 -130 98 -216 258 -361 481 -438 26 -9 54 -17 62 -19 8 -2 34 -8 58 -15
24 -6 58 -13 75 -16 18 -2 50 -7 72 -10 22 -4 51 -7 65 -8 14 -1 30 -4 35 -7
13 -7 394 -3 470 5 77 8 169 22 219 32 11 2 37 7 56 10 19 3 39 8 43 11 5 3
23 7 40 10 18 3 46 11 62 18 17 7 40 16 51 19 19 6 21 13 20 59 -1 29 2 60 7
70 4 9 4 17 -1 17 -9 0 -7 124 2 147 3 7 2 13 -2 13 -4 0 -6 108 -5 239 l1
239 -31 -18 c-34 -20 -134 -55 -183 -65 -61 -11 -100 -18 -119 -19 -11 -1 -25
-5 -32 -9 -6 -4 -14 -3 -18 2 -3 6 -15 7 -28 3 -12 -5 -53 -7 -92 -6 -259 6
-405 96 -471 289 -37 109 -39 189 -39 1065 l0 855 490 2 c270 1 497 2 506 2
15 1 16 25 16 220 0 120 4 224 7 230 4 6 3 11 -2 11 -5 0 -9 13 -8 30 1 16 4
30 7 30 7 0 40 -73 148 -335 34 -82 66 -157 70 -165 5 -9 32 -72 61 -140 28
-69 58 -138 65 -155 11 -27 44 -104 81 -192 8 -18 20 -48 28 -65 8 -18 33 -78
56 -133 23 -55 48 -113 55 -130 7 -16 31 -73 53 -125 22 -52 61 -144 87 -205
26 -60 52 -121 58 -135 6 -14 11 -27 12 -30 0 -3 8 -21 17 -40 19 -42 138
-324 143 -340 1 -3 12 -27 24 -55 13 -27 32 -72 43 -100 11 -27 26 -63 33 -80
7 -16 32 -75 55 -130 23 -55 48 -113 56 -130 7 -16 34 -79 59 -140 26 -60 50
-119 55 -130 55 -122 68 -155 65 -155 -3 0 4 -17 14 -37 11 -21 45 -98 75
-172 54 -127 56 -135 44 -175 -6 -22 -17 -48 -25 -57 -7 -8 -13 -24 -13 -35 0
-11 -4 -24 -8 -29 -5 -6 -24 -48 -42 -95 -18 -47 -42 -105 -53 -130 -11 -25
-20 -51 -20 -57 0 -7 -3 -13 -7 -13 -5 0 -31 -58 -35 -80 -3 -15 -61 -126 -67
-128 -5 -2 -8 -12 -8 -23 0 -10 -4 -19 -8 -19 -4 0 -16 -15 -27 -32 -58 -99
-184 -192 -290 -214 -5 -1 -32 -8 -60 -15 -70 -17 -329 -19 -412 -3 -102 20
-104 21 -184 44 -41 12 -80 27 -86 32 -9 7 -13 6 -14 -3 -2 -22 -7 -52 -12
-74 -3 -11 -8 -45 -11 -76 -4 -31 -9 -67 -11 -80 -3 -13 -8 -48 -11 -78 -3
-30 -8 -64 -10 -75 -2 -12 -7 -41 -10 -66 -3 -25 -7 -56 -10 -70 -3 -14 -6
-43 -9 -65 -2 -22 -6 -53 -9 -70 -2 -16 -8 -54 -11 -84 -4 -30 -8 -62 -10 -72
-3 -15 7 -20 53 -29 31 -6 71 -15 87 -20 28 -8 106 -21 200 -35 215 -30 591
-26 752 9 15 4 37 8 49 10 71 14 259 81 285 103 8 7 19 13 23 13 3 0 39 21 79
47 150 99 331 315 414 496 10 20 21 37 25 37 5 0 8 5 8 11 0 6 15 43 34 82 18
40 43 95 56 122 12 28 28 65 37 84 8 18 16 39 18 45 2 12 6 23 49 123 14 34
26 69 26 78 0 8 5 15 12 15 6 0 9 3 6 6 -4 3 7 37 22 75 16 38 26 69 22 69 -4
0 -2 4 4 8 5 4 21 36 34 72 13 36 34 89 47 118 12 29 23 57 23 62 0 5 7 26 16
47 9 21 21 48 25 61 5 12 13 32 19 45 5 12 39 101 76 197 36 96 73 191 82 210
9 19 17 41 18 48 1 7 12 33 23 58 12 24 21 49 21 54 0 6 10 30 21 53 12 23 21
42 20 42 -2 0 5 24 16 53 3 9 7 19 8 22 1 3 6 16 12 30 12 29 90 228 135 345
17 44 36 94 43 110 7 17 27 68 45 115 17 47 36 94 41 105 4 11 10 27 11 35 2
8 6 17 9 20 3 3 16 34 29 70 13 36 30 81 39 100 8 19 15 37 16 40 1 8 76 201
93 240 8 19 16 40 18 45 4 13 69 181 85 220 7 17 13 32 14 35 8 25 18 48 26
62 5 10 9 25 9 33 0 8 4 15 10 15 5 0 9 3 8 8 -4 16 14 72 23 72 6 0 8 4 4 9
-3 5 -1 12 5 16 5 3 10 15 10 26 0 10 5 27 10 37 6 9 40 94 76 187 36 94 72
185 80 203 9 18 17 42 19 53 2 12 9 27 14 33 6 7 12 21 14 32 1 10 6 25 10 31
4 7 16 36 26 65 25 70 108 285 127 325 8 17 14 34 14 38 0 4 6 21 14 38 7 18
23 56 34 85 l21 52 -481 -2 -482 -3 -22 -57 c-12 -32 -20 -58 -18 -58 3 0 -2
-12 -10 -27 -8 -16 -26 -62 -40 -103 -13 -41 -39 -113 -56 -160 -18 -47 -39
-105 -47 -130 -8 -25 -21 -59 -29 -77 -8 -17 -14 -37 -14 -45 0 -8 -3 -18 -7
-22 -4 -3 -8 -12 -9 -19 -3 -14 -110 -312 -123 -342 -12 -27 -45 -117 -47
-130 -2 -12 -82 -232 -94 -260 -11 -26 -130 -357 -133 -370 -3 -9 -55 -157
-98 -272 -10 -29 -28 -77 -38 -105 -11 -29 -22 -62 -27 -73 -4 -11 -8 -24 -9
-30 -2 -5 -13 -36 -25 -67 -12 -32 -21 -60 -20 -63 0 -3 -7 -19 -15 -35 -9
-17 -13 -30 -10 -30 3 0 -4 -19 -16 -42 l-22 -43 -15 35 c-25 56 -40 91 -63
150 -11 30 -26 66 -32 80 -6 14 -11 27 -12 30 -1 3 -7 18 -13 33 -7 16 -12 30
-12 31 0 2 -8 21 -17 42 -9 22 -17 41 -18 44 -4 13 -22 60 -48 120 -8 19 -27
67 -42 105 -15 39 -33 84 -40 100 -7 17 -41 99 -75 184 -34 85 -67 166 -72
180 -6 14 -12 31 -14 36 -3 11 -237 594 -254 633 -6 12 -14 32 -19 45 -5 12
-15 38 -23 57 -8 19 -21 51 -28 70 -7 19 -21 54 -31 78 -11 24 -27 62 -35 85
-9 23 -20 51 -24 62 -5 11 -19 45 -30 75 -12 30 -26 63 -31 72 -5 10 -9 25 -9
33 0 8 -5 15 -12 15 -6 0 -8 3 -5 6 3 4 1 16 -5 28 -7 11 -13 26 -15 31 -4 20
-28 80 -36 93 -6 9 -212 12 -970 12 l-962 0 0 533 0 532 -461 2 -461 1 1 -56z"/>
<path d="M7806 14043 c-1 -2 -22 -5 -47 -8 -98 -11 -133 -16 -139 -20 -4 -2
-20 -6 -36 -9 -36 -7 -144 -41 -170 -54 -11 -5 -53 -26 -94 -47 -110 -55 -194
-117 -291 -215 -75 -77 -165 -199 -209 -284 -8 -16 -19 -31 -25 -33 -7 -2 -10
98 -9 287 l1 290 -461 0 -461 0 0 -1842 0 -1843 460 0 460 0 1 1015 c1 558 5
1029 8 1045 4 17 8 41 10 55 9 64 20 109 43 174 30 84 81 188 97 198 6 4 7 8
3 8 -5 0 -2 6 5 14 7 7 20 24 28 37 27 41 170 176 200 189 17 7 30 16 30 19 0
7 83 48 170 84 39 16 156 44 228 54 40 5 235 7 297 3 22 -2 167 -26 200 -34
11 -2 40 -9 65 -15 24 -5 46 -8 49 -5 2 2 4 200 4 439 0 316 -3 439 -11 447
-7 7 -12 8 -12 4 0 -5 -7 -3 -15 4 -8 7 -15 10 -15 7 0 -3 -15 -1 -32 4 -33
10 -55 14 -138 25 -46 6 -190 11 -194 7z"/>
<path d="M10007 14043 c-1 0 -52 -4 -113 -7 -61 -4 -119 -8 -130 -10 -10 -2
-41 -6 -69 -10 -27 -4 -95 -16 -150 -28 -55 -11 -104 -21 -110 -22 -95 -19
-348 -117 -456 -177 -40 -21 -73 -39 -75 -39 -9 0 -199 -133 -202 -141 -2 -5
-8 -9 -13 -9 -5 0 -23 -13 -39 -30 -16 -16 -31 -30 -34 -30 -11 0 -87 -81 -84
-90 3 -9 210 -220 401 -409 l75 -73 32 28 c49 44 203 154 217 154 6 0 18 6 25
13 17 16 124 67 213 100 170 63 312 86 528 84 92 -1 167 -5 167 -9 0 -4 8 -6
18 -6 27 2 179 -40 230 -64 51 -24 140 -76 158 -93 6 -5 29 -26 50 -46 21 -20
48 -49 59 -64 11 -16 26 -34 33 -41 6 -7 12 -20 12 -28 0 -9 4 -16 9 -16 12 0
59 -148 67 -212 8 -63 12 -188 6 -205 -2 -7 -9 -10 -15 -6 -13 8 -162 7 -176
-1 -5 -4 -12 -3 -14 1 -4 7 -62 9 -77 3 -3 -1 -9 -1 -15 0 -28 6 -65 5 -65 -1
0 -4 -13 -4 -29 1 -16 4 -32 6 -35 3 -3 -3 -69 -7 -148 -9 -131 -2 -173 -5
-323 -20 -123 -11 -143 -13 -185 -19 -25 -4 -56 -8 -70 -10 -41 -5 -104 -16
-120 -20 -8 -3 -33 -7 -55 -10 -22 -4 -58 -11 -80 -17 -22 -5 -51 -12 -65 -15
-108 -19 -430 -135 -471 -170 -8 -7 -20 -13 -26 -13 -5 0 -52 -28 -104 -62
-122 -81 -267 -224 -315 -313 -6 -11 -25 -44 -42 -72 -17 -29 -29 -53 -26 -53
4 0 2 -6 -3 -12 -9 -12 -41 -103 -48 -138 -2 -8 -8 -35 -14 -60 -31 -138 -32
-423 -2 -503 5 -12 9 -26 10 -32 8 -66 73 -216 135 -310 51 -77 192 -219 276
-277 87 -61 228 -131 337 -167 86 -29 139 -42 258 -66 59 -12 146 -17 290 -18
201 -1 296 10 455 53 25 7 50 13 55 14 6 1 15 4 20 7 14 8 68 23 78 21 4 -1 7
3 7 8 0 6 5 10 11 10 31 0 268 139 277 162 2 4 8 8 13 8 5 0 28 18 50 40 22
22 45 40 50 40 5 0 9 3 9 8 0 4 19 28 43 54 44 49 62 71 87 108 35 51 50 65
57 53 5 -6 8 -120 7 -252 -1 -133 2 -242 5 -242 3 -1 189 -2 413 -3 271 -1
409 2 411 9 6 21 0 2312 -6 2322 -4 7 -3 14 3 18 6 4 8 11 4 16 -5 9 -15 106
-15 144 1 11 -4 43 -9 70 -6 28 -12 68 -15 90 -3 22 -9 55 -14 73 -5 18 -10
33 -10 35 1 10 -18 76 -42 151 -42 126 -107 252 -182 351 -64 86 -264 265
-296 265 -5 0 -11 4 -13 8 -4 9 -132 76 -167 87 -13 4 -40 14 -60 23 -20 9
-45 17 -56 19 -11 2 -29 7 -40 12 -23 11 -106 31 -149 37 -15 2 -35 6 -45 8
-9 3 -38 8 -66 12 -27 3 -59 8 -70 10 -41 8 -402 23 -408 17z m767 -2308 c0
-99 -3 -198 -7 -220 -60 -332 -290 -558 -637 -625 -105 -21 -136 -23 -260 -23
-156 0 -190 6 -320 50 -246 85 -372 275 -336 508 4 28 13 56 18 63 6 6 7 12 4
12 -4 0 2 13 13 29 12 16 21 33 21 38 0 14 75 88 122 120 51 36 101 67 108 69
3 0 19 6 35 13 66 28 133 51 195 66 91 24 102 26 130 29 14 2 34 6 45 9 11 3
47 9 80 12 33 3 74 8 90 10 17 2 86 7 155 11 69 3 126 7 127 8 1 1 95 1 210 1
l208 0 -1 -180z"/>
<path d="M11840 13946 c0 -3 5 -17 12 -33 6 -15 12 -30 13 -33 1 -3 7 -18 13
-33 7 -16 12 -30 12 -33 0 -2 9 -23 19 -47 10 -23 40 -94 65 -157 25 -63 53
-128 61 -143 8 -16 15 -33 15 -38 0 -5 9 -31 21 -57 12 -26 25 -56 29 -67 75
-186 95 -235 106 -260 8 -16 43 -102 78 -190 110 -275 197 -489 213 -522 8
-17 16 -37 17 -45 2 -7 13 -35 24 -61 12 -27 22 -51 22 -53 0 -2 9 -26 21 -52
12 -26 25 -56 29 -67 5 -11 29 -72 55 -135 25 -63 50 -124 55 -135 31 -69 110
-270 110 -281 0 -7 4 -14 8 -16 4 -2 18 -32 31 -68 13 -36 32 -83 42 -105 10
-22 48 -114 84 -205 75 -184 93 -227 106 -252 5 -10 9 -22 9 -27 0 -4 10 -30
22 -57 12 -27 23 -51 23 -54 1 -3 7 -18 14 -35 7 -16 14 -34 15 -40 1 -5 6
-17 11 -25 5 -8 10 -19 12 -25 4 -22 128 -320 134 -325 4 -3 227 -5 495 -5
l487 0 39 95 c22 52 46 115 55 140 8 25 23 63 33 85 10 22 26 63 36 90 10 28
22 53 27 56 5 3 8 10 7 15 -1 10 34 112 55 159 7 17 32 77 55 135 22 58 48
119 55 137 8 17 15 34 15 37 0 3 39 104 86 223 47 120 97 247 111 283 14 36
29 74 34 85 5 11 38 97 74 190 37 94 72 184 79 200 7 17 23 57 36 90 12 33 28
74 35 90 7 17 29 71 48 120 20 50 41 104 48 120 7 17 13 32 14 35 4 11 17 47
30 80 117 297 235 597 286 725 35 88 64 162 65 165 0 3 4 14 9 25 35 84 115
291 115 297 0 4 -212 8 -470 8 l-470 0 -11 -27 c-6 -16 -12 -32 -13 -38 -2 -5
-8 -23 -15 -40 -7 -16 -37 -95 -67 -175 -31 -79 -58 -149 -62 -155 -3 -5 -8
-18 -9 -27 -1 -9 -14 -43 -29 -75 -14 -32 -27 -65 -29 -73 -2 -8 -8 -28 -15
-45 -6 -16 -11 -31 -11 -33 1 -1 -6 -16 -14 -32 -9 -17 -12 -30 -9 -30 4 0 -1
-9 -11 -20 -10 -11 -15 -20 -11 -20 4 0 1 -10 -6 -22 -6 -13 -13 -27 -14 -33
-1 -9 -45 -124 -235 -620 -57 -146 -94 -243 -115 -295 -28 -72 -37 -95 -39
-100 0 -3 -11 -32 -23 -65 -26 -68 -29 -76 -32 -90 -1 -5 -11 -27 -21 -47 -10
-21 -19 -41 -19 -46 0 -5 -7 -26 -15 -46 -8 -20 -16 -39 -16 -43 -1 -5 -6 -17
-12 -28 -6 -11 -12 -24 -13 -30 -2 -9 -78 -208 -99 -260 -5 -11 -9 -22 -10
-25 -17 -50 -30 -51 -46 -2 -6 20 -14 42 -18 47 -3 6 -6 15 -7 20 -1 6 -20 56
-42 113 -22 56 -38 102 -35 102 3 0 1 6 -4 13 -5 6 -18 35 -28 62 -9 28 -23
64 -30 80 -7 17 -23 57 -35 90 -26 72 -39 104 -51 127 -5 10 -9 22 -9 27 0 5
-8 26 -17 47 -9 22 -17 41 -18 44 0 3 -6 19 -12 35 -7 17 -48 127 -93 245 -45
118 -85 224 -90 235 -4 11 -22 58 -40 105 -18 47 -36 94 -40 105 -5 11 -14 38
-21 60 -7 22 -16 45 -20 50 -4 6 -15 33 -25 60 -9 28 -21 61 -27 75 -6 14 -11
27 -12 30 0 3 -16 43 -34 90 -18 47 -34 90 -36 95 -2 10 -13 38 -39 105 -8 19
-24 62 -37 95 -12 33 -30 79 -40 101 -10 23 -21 54 -25 70 -4 15 -13 39 -20
53 -8 14 -14 31 -14 38 0 6 -6 24 -14 40 -8 15 -19 40 -25 56 l-11 27 -500 0
c-275 0 -500 -2 -500 -4z"/>
<path d="M16012 12107 l-1 -1842 462 0 462 0 0 1842 0 1843 -462 0 -461 0 0
-1843z"/>
</g>
</svg>
